<svg width="160" height="160" viewBox="0 0 160 160" fill="none" xmlns="http://www.w3.org/2000/svg">
<path d="M41.1666 9.33333L50.6666 0L107.833 57.1667C110.389 59.7222 111.667 62.8889 111.667 66.6667C111.667 70.4444 110.389 73.6111 107.833 76.1667L76.1666 107.833C73.611 110.389 70.4444 111.667 66.6666 111.667C62.8888 111.667 59.7221 110.389 57.1666 107.833L25.4999 76.1667C22.9444 73.6111 21.6666 70.4444 21.6666 66.6667C21.6666 62.8889 22.9444 59.7222 25.4999 57.1667L57.1666 25.3333L41.1666 9.33333ZM66.6666 34.8333L34.8333 66.6667H98.4999L66.6666 34.8333ZM126.667 113.333C123 113.333 119.861 112.028 117.25 109.417C114.639 106.806 113.333 103.667 113.333 100C113.333 97.6667 114.028 95.1667 115.417 92.5C116.805 89.8333 118.333 87.3333 120 85C121 83.6667 122.055 82.2778 123.167 80.8333C124.278 79.3889 125.444 78 126.667 76.6667C127.889 78 129.055 79.3889 130.167 80.8333C131.278 82.2778 132.333 83.6667 133.333 85C135 87.3333 136.528 89.8333 137.917 92.5C139.305 95.1667 140 97.6667 140 100C140 103.667 138.694 106.806 136.083 109.417C133.472 112.028 130.333 113.333 126.667 113.333ZM13.3333 160V133.333H146.667V160H13.3333Z" fill="#1D1B20"/>
</svg>
