<svg width="48" height="48" viewBox="0 0 48 48" fill="none" xmlns="http://www.w3.org/2000/svg">
<path d="M13.6 38V10H24.65C26.8166 10 28.8166 10.6667 30.65 12C32.4833 13.3333 33.4 15.1833 33.4 17.55C33.4 19.25 33.0166 20.5583 32.25 21.475C31.4833 22.3917 30.7666 23.05 30.1 23.45C30.9333 23.8167 31.8583 24.5 32.875 25.5C33.8916 26.5 34.4 28 34.4 30C34.4 32.9667 33.3166 35.0417 31.15 36.225C28.9833 37.4083 26.95 38 25.05 38H13.6ZM19.65 32.4H24.85C26.45 32.4 27.425 31.9917 27.775 31.175C28.125 30.3583 28.3 29.7667 28.3 29.4C28.3 29.0333 28.125 28.4417 27.775 27.625C27.425 26.8083 26.4 26.4 24.7 26.4H19.65V32.4ZM19.65 21H24.3C25.4 21 26.2 20.7167 26.7 20.15C27.2 19.5833 27.45 18.95 27.45 18.25C27.45 17.45 27.1666 16.8 26.6 16.3C26.0333 15.8 25.3 15.55 24.4 15.55H19.65V21Z" fill="#1D1B20"/>
</svg>
