<svg width="100" height="100" viewBox="0 0 100 100" fill="none" xmlns="http://www.w3.org/2000/svg">
<g clip-path="url(#clip0_116_13)">
<path d="M37.5127 34.375C37.5127 36.8614 36.525 39.246 34.7668 41.0041C33.0087 42.7623 30.6241 43.75 28.1377 43.75C25.6513 43.75 23.2667 42.7623 21.5086 41.0041C19.7504 39.246 18.7627 36.8614 18.7627 34.375C18.7627 31.8886 19.7504 29.504 21.5086 27.7459C23.2667 25.9877 25.6513 25 28.1377 25C30.6241 25 33.0087 25.9877 34.7668 27.7459C36.525 29.504 37.5127 31.8886 37.5127 34.375V34.375Z" fill="black"/>
<path d="M12.5127 6.25C9.19749 6.25 6.01807 7.56696 3.67386 9.91117C1.32966 12.2554 0.0126953 15.4348 0.0126953 18.75V81.25C0.0126953 84.5652 1.32966 87.7446 3.67386 90.0888C6.01807 92.433 9.19749 93.75 12.5127 93.75H87.5127C90.8279 93.75 94.0073 92.433 96.3515 90.0888C98.6957 87.7446 100.013 84.5652 100.013 81.25V18.75C100.013 15.4348 98.6957 12.2554 96.3515 9.91117C94.0073 7.56696 90.8279 6.25 87.5127 6.25H12.5127V6.25ZM87.5127 12.5C89.1703 12.5 90.76 13.1585 91.9321 14.3306C93.1042 15.5027 93.7627 17.0924 93.7627 18.75V59.375L70.1564 47.2062C69.5703 46.9126 68.9067 46.8108 68.2596 46.9151C67.6124 47.0194 67.0144 47.3246 66.5502 47.7875L43.3627 70.975L26.7377 59.9C26.1374 59.5004 25.4175 59.3206 24.6998 59.3913C23.9822 59.4619 23.311 59.7785 22.8002 60.2875L6.2627 75V18.75C6.2627 17.0924 6.92118 15.5027 8.09328 14.3306C9.26538 13.1585 10.8551 12.5 12.5127 12.5H87.5127Z" fill="black"/>
</g>
<defs>
<clipPath id="clip0_116_13">
<rect width="100" height="100" fill="white"/>
</clipPath>
</defs>
</svg>
