<svg width="73" height="73" viewBox="0 0 73 73" fill="none" xmlns="http://www.w3.org/2000/svg">
<path d="M8.62891 39.959C8.87563 39.9591 9.11264 40.0827 9.28711 40.3027C9.46162 40.5228 9.55954 40.8216 9.55957 41.1328V68.8193L15.417 61.4307C15.5918 61.2105 15.8291 61.0869 16.0762 61.0869C16.3231 61.0871 16.5597 61.2107 16.7344 61.4307C16.9091 61.651 17.0077 61.9501 17.0078 62.2617C17.0078 62.4161 16.9834 62.5693 16.9365 62.7119C16.8897 62.8544 16.8209 62.9837 16.7344 63.0928L9.28711 72.4844C9.20073 72.5935 9.09827 72.6802 8.98535 72.7393C8.8724 72.7984 8.7512 72.829 8.62891 72.8291C8.50646 72.8291 8.38458 72.7984 8.27148 72.7393C8.15858 72.6802 8.0561 72.5935 7.96973 72.4844L0.522461 63.0928C0.347693 62.8724 0.249023 62.5734 0.249023 62.2617C0.249109 61.9502 0.347737 61.651 0.522461 61.4307C0.697117 61.2107 0.933792 61.0871 1.18066 61.0869C1.42771 61.0869 1.66507 61.2105 1.83984 61.4307L7.69727 68.8193V41.1328C7.69729 40.8216 7.79523 40.5228 7.96973 40.3027C8.14431 40.0826 8.38201 39.959 8.62891 39.959ZM73 62.9766H24V57.8184H73V62.9766ZM73 47.502H24V42.3447H73V47.502ZM8.62891 0.829102C8.75122 0.829167 8.87238 0.859833 8.98535 0.918945C9.0983 0.978085 9.20072 1.06467 9.28711 1.17383L16.7354 10.5645C16.91 10.7848 17.0078 11.0839 17.0078 11.3955C17.0078 11.7071 16.91 12.0062 16.7354 12.2266C16.5606 12.4469 16.3233 12.5712 16.0762 12.5713C15.829 12.5713 15.5918 12.4469 15.417 12.2266L9.55957 4.83887V32.5244C9.55957 32.8356 9.46152 33.1344 9.28711 33.3545C9.11262 33.5745 8.87566 33.6981 8.62891 33.6982C8.38203 33.6982 8.14528 33.5746 7.9707 33.3545C7.79612 33.1344 7.69727 32.8357 7.69727 32.5244V4.83887L1.83984 12.2266C1.66516 12.4467 1.42863 12.5711 1.18164 12.5713C0.934477 12.5713 0.697253 12.4469 0.522461 12.2266C0.34766 12.0061 0.249023 11.7072 0.249023 11.3955C0.249031 11.2412 0.273478 11.0879 0.320312 10.9453C0.36715 10.8029 0.436012 10.6735 0.522461 10.5645L7.96973 1.17383C8.05609 1.06467 8.15856 0.9781 8.27148 0.918945C8.38458 0.859768 8.50646 0.829102 8.62891 0.829102ZM73 30.9971H24V25.8389H73V30.9971ZM73 15.5225H24V10.3643H73V15.5225Z" fill="black"/>
</svg>
