<svg width="48" height="48" viewBox="0 0 48 48" fill="none" xmlns="http://www.w3.org/2000/svg">
<path d="M38.5 32.9L35.5 29.8C36.8334 29.4333 37.9167 28.725 38.75 27.675C39.5834 26.625 40 25.4 40 24C40 22.3333 39.4167 20.9166 38.25 19.75C37.0834 18.5833 35.6667 18 34 18H26V14H34C36.7667 14 39.125 14.975 41.0751 16.925C43.0251 18.875 44 21.2333 44 24C44 25.9 43.5084 27.65 42.5251 29.25C41.5417 30.85 40.2001 32.0666 38.5 32.9ZM31.7 26L27.7 22H32V26H31.7ZM39.6 45.2L2.80005 8.39998L5.60005 5.59998L42.4001 42.4L39.6 45.2ZM22 34H14C11.2334 34 8.87505 33.025 6.92505 31.075C4.97505 29.125 4.00005 26.7666 4.00005 24C4.00005 21.7 4.70005 19.65 6.10005 17.85C7.50005 16.05 9.30005 14.8666 11.5 14.3L15.2 18H14C12.3334 18 10.9167 18.5833 9.75005 19.75C8.58338 20.9166 8.00005 22.3333 8.00005 24C8.00005 25.6666 8.58338 27.0833 9.75005 28.25C10.9167 29.4166 12.3334 30 14 30H22V34ZM16 26V22H19.25L23.2 26H16Z" fill="#1D1B20"/>
</svg>
