<svg width="48" height="48" viewBox="0 0 48 48" fill="none" xmlns="http://www.w3.org/2000/svg">
<path d="M22 34H14C11.2333 34 8.875 33.025 6.925 31.075C4.975 29.125 4 26.7667 4 24C4 21.2333 4.975 18.875 6.925 16.925C8.875 14.975 11.2333 14 14 14H22V18H14C12.3333 18 10.9167 18.5833 9.75 19.75C8.58333 20.9167 8 22.3333 8 24C8 25.6667 8.58333 27.0833 9.75 28.25C10.9167 29.4167 12.3333 30 14 30H22V34ZM16 26V22H32V26H16ZM26 34V30H34C35.6667 30 37.0833 29.4167 38.25 28.25C39.4167 27.0833 40 25.6667 40 24C40 22.3333 39.4167 20.9167 38.25 19.75C37.0833 18.5833 35.6667 18 34 18H26V14H34C36.7667 14 39.125 14.975 41.075 16.925C43.025 18.875 44 21.2333 44 24C44 26.7667 43.025 29.125 41.075 31.075C39.125 33.025 36.7667 34 34 34H26Z" fill="#1D1B20"/>
</svg>
