<svg width="350" height="350" viewBox="0 0 350 350" fill="none" xmlns="http://www.w3.org/2000/svg">
<path fill-rule="evenodd" clip-rule="evenodd" d="M109.375 251.562C109.375 248.662 110.527 245.88 112.579 243.829C114.63 241.777 117.412 240.625 120.312 240.625H317.188C320.088 240.625 322.87 241.777 324.921 243.829C326.973 245.88 328.125 248.662 328.125 251.562C328.125 254.463 326.973 257.245 324.921 259.296C322.87 261.348 320.088 262.5 317.188 262.5H120.312C117.412 262.5 114.63 261.348 112.579 259.296C110.527 257.245 109.375 254.463 109.375 251.562ZM109.375 164.062C109.375 161.162 110.527 158.38 112.579 156.329C114.63 154.277 117.412 153.125 120.312 153.125H317.188C320.088 153.125 322.87 154.277 324.921 156.329C326.973 158.38 328.125 161.162 328.125 164.062C328.125 166.963 326.973 169.745 324.921 171.796C322.87 173.848 320.088 175 317.188 175H120.312C117.412 175 114.63 173.848 112.579 171.796C110.527 169.745 109.375 166.963 109.375 164.062ZM109.375 76.5625C109.375 73.6617 110.527 70.8797 112.579 68.8285C114.63 66.7773 117.412 65.625 120.312 65.625H317.188C320.088 65.625 322.87 66.7773 324.921 68.8285C326.973 70.8797 328.125 73.6617 328.125 76.5625C328.125 79.4633 326.973 82.2453 324.921 84.2965C322.87 86.3477 320.088 87.5 317.188 87.5H120.312C117.412 87.5 114.63 86.3477 112.579 84.2965C110.527 82.2453 109.375 79.4633 109.375 76.5625ZM43.75 98.4375C49.5516 98.4375 55.1156 96.1328 59.218 92.0305C63.3203 87.9281 65.625 82.3641 65.625 76.5625C65.625 70.7609 63.3203 65.1969 59.218 61.0945C55.1156 56.9922 49.5516 54.6875 43.75 54.6875C37.9484 54.6875 32.3844 56.9922 28.282 61.0945C24.1797 65.1969 21.875 70.7609 21.875 76.5625C21.875 82.3641 24.1797 87.9281 28.282 92.0305C32.3844 96.1328 37.9484 98.4375 43.75 98.4375V98.4375ZM43.75 185.938C49.5516 185.938 55.1156 183.633 59.218 179.53C63.3203 175.428 65.625 169.864 65.625 164.062C65.625 158.261 63.3203 152.697 59.218 148.595C55.1156 144.492 49.5516 142.188 43.75 142.188C37.9484 142.188 32.3844 144.492 28.282 148.595C24.1797 152.697 21.875 158.261 21.875 164.062C21.875 169.864 24.1797 175.428 28.282 179.53C32.3844 183.633 37.9484 185.938 43.75 185.938V185.938ZM43.75 273.438C49.5516 273.438 55.1156 271.133 59.218 267.03C63.3203 262.928 65.625 257.364 65.625 251.562C65.625 245.761 63.3203 240.197 59.218 236.095C55.1156 231.992 49.5516 229.688 43.75 229.688C37.9484 229.688 32.3844 231.992 28.282 236.095C24.1797 240.197 21.875 245.761 21.875 251.562C21.875 257.364 24.1797 262.928 28.282 267.03C32.3844 271.133 37.9484 273.438 43.75 273.438V273.438Z" fill="black"/>
</svg>
