<svg width="482" height="482" viewBox="0 0 482 482" fill="none" xmlns="http://www.w3.org/2000/svg">
<path fill-rule="evenodd" clip-rule="evenodd" d="M150.625 346.438C150.625 342.443 152.212 338.611 155.037 335.787C157.861 332.962 161.693 331.375 165.688 331.375H436.812C440.807 331.375 444.639 332.962 447.463 335.787C450.288 338.611 451.875 342.443 451.875 346.438C451.875 350.432 450.288 354.264 447.463 357.088C444.639 359.913 440.807 361.5 436.812 361.5H165.688C161.693 361.5 157.861 359.913 155.037 357.088C152.212 354.264 150.625 350.432 150.625 346.438ZM150.625 225.938C150.625 221.943 152.212 218.111 155.037 215.287C157.861 212.462 161.693 210.875 165.688 210.875H436.812C440.807 210.875 444.639 212.462 447.463 215.287C450.288 218.111 451.875 221.943 451.875 225.938C451.875 229.932 450.288 233.764 447.463 236.588C444.639 239.413 440.807 241 436.812 241H165.688C161.693 241 157.861 239.413 155.037 236.588C152.212 233.764 150.625 229.932 150.625 225.938ZM150.625 105.438C150.625 101.443 152.212 97.6115 155.037 94.7867C157.861 91.9619 161.693 90.375 165.688 90.375H436.812C440.807 90.375 444.639 91.9619 447.463 94.7867C450.288 97.6115 451.875 101.443 451.875 105.438C451.875 109.432 450.288 113.264 447.463 116.088C444.639 118.913 440.807 120.5 436.812 120.5H165.688C161.693 120.5 157.861 118.913 155.037 116.088C152.212 113.264 150.625 109.432 150.625 105.438Z" fill="black"/>
<path d="M51.6041 357.433V343.154H60.25C66.7871 343.154 71.1854 339.027 71.1854 333.604C71.1854 328.031 66.4256 324.265 60.3103 324.265C53.5924 324.265 49.2544 328.844 49.0736 333.604H31.2999C31.7819 319.536 42.5365 309.896 61.0031 309.896C78.7166 309.835 89.7424 318.662 89.8327 331.074C89.8898 335.33 88.4298 339.469 85.7141 342.747C82.9984 346.026 79.2044 348.231 75.0112 348.968V349.962C79.7653 350.316 84.1996 352.49 87.3922 356.03C90.5847 359.571 92.2896 364.206 92.1524 368.971C92.2427 385.027 77.0296 393.071 60.491 393.071C40.729 393.071 30.366 381.925 30.125 369.152H47.6577C47.8987 374.514 53.261 378.37 60.3705 378.46C68.0222 378.46 73.1435 374.092 73.0833 367.916C73.023 362.042 68.4139 357.433 60.6115 357.433H51.574H51.6041ZM51.4836 215.876H33.2881V214.821C33.2881 202.53 42.175 189.396 62.1479 189.396C79.7107 189.396 91.0679 199.216 91.0679 212.17C91.0679 223.889 83.3257 230.757 76.7284 237.716L60.5512 254.948V255.851H92.303V271.125H34.4329V259.225L63.2625 229.402C67.4197 225.124 72.0891 220.244 72.0891 214.098C72.0891 208.676 67.6608 204.458 61.7864 204.458C60.4302 204.408 59.0783 204.637 57.8137 205.129C56.5492 205.622 55.3989 206.368 54.4337 207.322C53.4685 208.276 52.7088 209.417 52.2015 210.676C51.6941 211.935 51.4498 213.284 51.4836 214.64V215.876ZM77.2405 150.625H58.1111V88.0853H57.1772L39.1625 100.738V83.6569L58.1111 70.3115H77.2405V150.625Z" fill="black"/>
</svg>
