<svg width="209" height="209" viewBox="0 0 209 209" fill="none" xmlns="http://www.w3.org/2000/svg">
<path d="M52.25 0C45.3212 0 38.6762 2.75245 33.7768 7.65184C28.8774 12.5512 26.125 19.1962 26.125 26.125V182.875C26.125 189.804 28.8774 196.449 33.7768 201.348C38.6762 206.248 45.3212 209 52.25 209H156.75C163.679 209 170.324 206.248 175.223 201.348C180.123 196.449 182.875 189.804 182.875 182.875V26.125C182.875 19.1962 180.123 12.5512 175.223 7.65184C170.324 2.75245 163.679 0 156.75 0L52.25 0ZM52.25 13.0625H156.75C160.214 13.0625 163.537 14.4387 165.987 16.8884C168.436 19.3381 169.812 22.6606 169.812 26.125V182.875C169.812 186.339 168.436 189.662 165.987 192.112C163.537 194.561 160.214 195.938 156.75 195.938H52.25C48.7856 195.938 45.4631 194.561 43.0134 192.112C40.5637 189.662 39.1875 186.339 39.1875 182.875V26.125C39.1875 22.6606 40.5637 19.3381 43.0134 16.8884C45.4631 14.4387 48.7856 13.0625 52.25 13.0625V13.0625Z" fill="black"/>
<path d="M60.1266 157.887C57.5806 156.868 55.5294 154.901 54.4053 152.4C51.8581 147.332 52.7071 142.264 55.4503 138.005C58.0366 133.995 62.3211 130.586 67.1673 127.725C73.3059 124.244 79.7947 121.42 86.5259 119.3C91.7533 109.903 96.3865 100.187 100.398 90.2097C97.9998 84.7596 96.1192 79.096 94.7814 73.2938C93.6581 68.0688 93.227 62.896 94.1806 58.4548C95.1603 53.8306 97.7597 49.6768 102.671 47.7043C105.179 46.6985 107.896 46.1368 110.535 46.6985C111.862 46.9811 113.11 47.5555 114.188 48.3802C115.265 49.2048 116.146 50.259 116.766 51.4663C117.915 53.6086 118.333 56.1166 118.425 58.4939C118.516 60.9366 118.268 63.6536 117.811 66.5143C116.713 73.1762 114.284 81.3272 111.018 89.9484C114.622 97.6556 118.906 105.026 123.819 111.972C129.634 111.513 135.481 111.732 141.245 112.625C146 113.474 150.833 115.172 153.785 118.699C155.352 120.58 156.306 122.879 156.397 125.465C156.489 127.973 155.783 130.455 154.595 132.82C153.565 135.011 151.969 136.887 149.971 138.254C147.996 139.542 145.664 140.173 143.309 140.056C138.985 139.873 134.766 137.496 131.121 134.609C126.69 130.945 122.697 126.781 119.221 122.2C110.388 123.202 101.659 124.976 93.1356 127.503C89.2278 134.426 84.7678 141.022 79.7988 147.228C76.0106 151.799 71.8568 155.783 67.7029 157.508C65.3162 158.587 62.6091 158.723 60.1266 157.887V157.887ZM78.1398 133.055C75.9714 134.047 73.9598 135.092 72.1441 136.164C67.8596 138.698 65.0773 141.167 63.6927 143.309C62.4648 145.203 62.4387 146.574 63.1702 148.024C63.3008 148.312 63.4314 148.495 63.5098 148.599C63.6656 148.557 63.8184 148.505 63.967 148.442C65.7566 147.711 68.6042 145.373 72.2617 140.971C74.3418 138.424 76.3033 135.782 78.1398 133.055V133.055ZM99.5623 115.682C103.924 114.663 108.325 113.822 112.755 113.161C110.376 109.521 108.153 105.782 106.094 101.953C104.045 106.585 101.867 111.159 99.5623 115.669V115.682ZM131.513 121.56C133.473 123.676 135.38 125.478 137.195 126.915C140.33 129.397 142.512 130.22 143.701 130.259C144.019 130.301 144.342 130.232 144.615 130.063C145.158 129.634 145.581 129.072 145.843 128.431C146.307 127.635 146.572 126.738 146.613 125.818C146.606 125.511 146.485 125.218 146.274 124.995C145.595 124.185 143.661 123.01 139.507 122.265C136.865 121.823 134.192 121.592 131.513 121.573V121.56ZM105.519 75.7626C106.618 72.2164 107.491 68.6038 108.131 64.9468C108.536 62.4911 108.693 60.4664 108.628 58.8728C108.631 57.9935 108.49 57.1197 108.21 56.2864C107.556 56.3673 106.918 56.5433 106.316 56.8089C105.179 57.2661 104.252 58.1935 103.755 60.5056C103.233 63.0136 103.364 66.6319 104.356 71.2429C104.67 72.6929 105.062 74.2081 105.532 75.7626H105.519Z" fill="black"/>
</svg>
