<svg width="186" height="186" viewBox="0 0 186 186" fill="none" xmlns="http://www.w3.org/2000/svg">
<g clip-path="url(#clip0_105_3)">
<path d="M0 23.25C0 17.0837 2.44955 11.17 6.80977 6.80977C11.17 2.44955 17.0837 0 23.25 0L162.75 0C168.916 0 174.83 2.44955 179.19 6.80977C183.55 11.17 186 17.0837 186 23.25V162.75C186 168.916 183.55 174.83 179.19 179.19C174.83 183.55 168.916 186 162.75 186H23.25C17.0837 186 11.17 183.55 6.80977 179.19C2.44955 174.83 0 168.916 0 162.75V23.25ZM174.375 46.5H127.875V81.375H174.375V46.5ZM174.375 93H127.875V127.875H174.375V93ZM174.375 139.5H127.875V174.375H162.75C165.833 174.375 168.79 173.15 170.97 170.97C173.15 168.79 174.375 165.833 174.375 162.75V139.5ZM116.25 174.375V139.5H69.75V174.375H116.25ZM58.125 174.375V139.5H11.625V162.75C11.625 165.833 12.8498 168.79 15.0299 170.97C17.21 173.15 20.1669 174.375 23.25 174.375H58.125ZM11.625 127.875H58.125V93H11.625V127.875ZM11.625 81.375H58.125V46.5H11.625V81.375ZM69.75 46.5V81.375H116.25V46.5H69.75ZM116.25 93H69.75V127.875H116.25V93Z" fill="black"/>
</g>
<defs>
<clipPath id="clip0_105_3">
<rect width="186" height="186" fill="white"/>
</clipPath>
</defs>
</svg>
