<svg width="209" height="209" viewBox="0 0 209 209" fill="none" xmlns="http://www.w3.org/2000/svg">
<path d="M71.6478 89.8569C71.4567 89.0077 71.0978 88.2053 70.5922 87.4968C70.0866 86.7883 69.4444 86.188 68.7035 85.7312C67.9626 85.2744 67.1378 84.9703 66.2777 84.8368C65.4176 84.7033 64.5394 84.7431 63.6949 84.9538C62.8504 85.1645 62.0565 85.5418 61.3598 86.0637C60.6632 86.5856 60.078 87.2415 59.6385 87.9928C59.1989 88.7441 58.914 89.5757 58.8005 90.4387C58.6869 91.3016 58.747 92.1786 58.9772 93.018L78.5709 171.393C78.9237 172.792 79.7298 174.035 80.8632 174.927C81.9967 175.82 83.3937 176.312 84.8363 176.327C86.2789 176.342 87.6858 175.878 88.8375 175.01C89.9891 174.141 90.8207 172.915 91.2024 171.524L104.5 122.814L117.798 171.537C118.179 172.928 119.011 174.154 120.163 175.023C121.314 175.891 122.721 176.355 124.164 176.34C125.606 176.325 127.003 175.833 128.137 174.94C129.27 174.048 130.076 172.805 130.429 171.406L150.023 93.0311C150.397 91.3667 150.106 89.6219 149.21 88.1697C148.315 86.7175 146.887 85.6732 145.232 85.2602C143.577 84.8473 141.825 85.0984 140.353 85.9598C138.88 86.8213 137.803 88.2247 137.352 89.87L123.819 144.001L110.796 96.2575C110.416 94.8795 109.594 93.6642 108.457 92.7981C107.32 91.932 105.93 91.463 104.5 91.463C103.07 91.463 101.68 91.932 100.543 92.7981C99.4057 93.6642 98.584 94.8795 98.2039 96.2575L85.1805 144.001L71.6478 89.87V89.8569Z" fill="black"/>
<path d="M182.875 182.875V58.7812L124.094 0H52.25C45.3212 0 38.6762 2.75245 33.7768 7.65184C28.8774 12.5512 26.125 19.1962 26.125 26.125V182.875C26.125 189.804 28.8774 196.449 33.7768 201.348C38.6762 206.248 45.3212 209 52.25 209H156.75C163.679 209 170.324 206.248 175.223 201.348C180.123 196.449 182.875 189.804 182.875 182.875ZM124.094 39.1875C124.094 44.3841 126.158 49.3678 129.833 53.0424C133.507 56.7169 138.491 58.7812 143.688 58.7812H169.812V182.875C169.812 186.339 168.436 189.662 165.987 192.112C163.537 194.561 160.214 195.938 156.75 195.938H52.25C48.7856 195.938 45.4631 194.561 43.0134 192.112C40.5637 189.662 39.1875 186.339 39.1875 182.875V26.125C39.1875 22.6606 40.5637 19.3381 43.0134 16.8884C45.4631 14.4387 48.7856 13.0625 52.25 13.0625H124.094V39.1875Z" fill="black"/>
</svg>
